<svg width="61" height="61" viewBox="0 0 61 61" fill="none" xmlns="http://www.w3.org/2000/svg">
<rect x="0.114746" y="0.424805" width="60" height="60" rx="13" fill="url(#paint0_linear_318_139)"/>
<path fill-rule="evenodd" clip-rule="evenodd" d="M36.3916 10.4876C36.738 10.9177 36.9147 11.498 37.268 12.6587L44.9868 38.0151C42.1329 36.5346 39.0305 35.4669 35.7586 34.8908L30.7329 17.9074C30.6507 17.6295 30.3954 17.4388 30.1056 17.4388C29.8151 17.4388 29.5594 17.6305 29.4778 17.9093L24.5129 34.8822C21.2258 35.4557 18.1092 36.5254 15.2432 38.0113L22.9998 12.6528C23.3543 11.4942 23.5315 10.9148 23.878 10.4855C24.1838 10.1065 24.5817 9.81218 25.0335 9.63055C25.5454 9.4248 26.1512 9.4248 27.363 9.4248H32.9031C34.1164 9.4248 34.723 9.4248 35.2354 9.63097C35.6877 9.81298 36.0857 10.1079 36.3916 10.4876Z" fill="black"/>
<path fill-rule="evenodd" clip-rule="evenodd" d="M37.2295 38.8057C35.9571 39.8938 33.4173 40.6359 30.4918 40.6359C26.9011 40.6359 23.8915 39.518 23.0929 38.0146C22.8074 38.8763 22.7434 39.8624 22.7434 40.4923C22.7434 40.4923 22.5553 43.5855 24.7067 45.7369C24.7067 44.6198 25.6123 43.7142 26.7294 43.7142C28.6441 43.7142 28.642 45.3847 28.6402 46.74C28.6402 46.7805 28.6401 46.8209 28.6401 46.8609C28.6401 48.918 29.8974 50.6814 31.6854 51.4247C31.4183 50.8754 31.2685 50.2586 31.2685 49.6068C31.2685 47.6448 32.4203 46.9143 33.759 46.0653C34.8241 45.3898 36.0075 44.6393 36.8231 43.1337C37.2486 42.3482 37.4902 41.4485 37.4902 40.4923C37.4902 39.9043 37.3989 39.3376 37.2295 38.8057Z" fill="#FF5D01"/>
<defs>
<linearGradient id="paint0_linear_318_139" x1="30.1147" y1="0.424805" x2="30.1147" y2="60.4248" gradientUnits="userSpaceOnUse">
<stop stop-color="white"/>
<stop offset="1" stop-color="#E8E8E8"/>
</linearGradient>
</defs>
</svg>
