<svg width="163" height="163" viewBox="0 0 163 163" fill="none" xmlns="http://www.w3.org/2000/svg">
<rect x="0.0910645" y="6.78369" width="155.52" height="155.52" rx="38.016" transform="rotate(-2.5 0.0910645 6.78369)" fill="url(#paint0_linear_318_111)"/>
<path d="M50.41 112.6L36.4058 113.211L55.6049 50.936L68.6976 50.3643L93.1684 110.733L78.9156 111.355L74.0422 98.6164L54.2374 99.4811L50.41 112.6ZM61.4603 74.757L57.6401 88.0414L69.7384 87.5132L64.7749 74.6123C64.3976 73.5771 64.0191 72.5143 63.6394 71.424C63.2597 70.3336 62.9989 69.4317 62.8571 68.7184C62.778 69.4413 62.5968 70.3625 62.3136 71.4818C62.0832 72.5435 61.7987 73.6352 61.4603 74.757Z" fill="white"/>
<path d="M91.8613 97.6724L103.96 97.1442C104.133 98.5757 104.762 99.6828 105.848 100.466C106.934 101.248 108.444 101.598 110.377 101.513C112.366 101.426 113.815 101.031 114.726 100.327C115.636 99.6232 116.068 98.7464 116.022 97.6968C115.996 97.0891 115.72 96.4923 115.197 95.9063C114.728 95.3179 113.713 94.8918 112.152 94.6279L104.456 93.3034C100.608 92.6412 97.7052 91.4396 95.7473 89.6985C93.7871 87.9023 92.7273 85.1811 92.5681 81.5351C92.4427 78.6624 93.0824 76.1991 94.4871 74.1452C95.9447 72.0337 97.9488 70.3964 100.499 69.2335C103.048 68.0152 105.979 67.3337 109.294 67.189C112.498 67.0491 115.34 67.5062 117.822 68.5602C120.358 69.6117 122.363 71.157 123.836 73.1959C125.309 75.2349 126.106 77.6631 126.229 80.4805L114.131 81.0087C114.068 79.5724 113.605 78.458 112.74 77.6655C111.873 76.8178 110.666 76.4277 109.119 76.4952C107.682 76.558 106.538 76.9677 105.685 77.7244C104.886 78.4235 104.51 79.3255 104.558 80.4304C104.635 82.1982 106.18 83.3484 109.192 83.8811L116.971 85.2019C120.427 85.7705 123.078 86.9001 124.923 88.5908C126.821 90.2237 127.842 92.6975 127.987 96.0121C128.115 98.94 127.452 101.515 125.999 103.737C124.547 105.959 122.465 107.71 119.753 108.991C117.039 110.217 113.887 110.908 110.296 111.064C104.827 111.303 100.434 110.194 97.1161 107.738C93.7962 105.226 92.0446 101.871 91.8613 97.6724Z" fill="white"/>
<defs>
<linearGradient id="paint0_linear_318_111" x1="77.8511" y1="6.78369" x2="77.8511" y2="162.304" gradientUnits="userSpaceOnUse">
<stop stop-color="#00E8FC"/>
<stop offset="1" stop-color="#0A7AFF"/>
</linearGradient>
</defs>
</svg>
