<svg width="61" height="61" viewBox="0 0 61 61" fill="none" xmlns="http://www.w3.org/2000/svg">
<rect x="0.114746" y="0.424805" width="60" height="60" rx="13" fill="url(#paint0_linear_318_130)"/>
<g clip-path="url(#clip0_318_130)">
<path d="M24.0024 48C27.3144 48 30.0024 45.312 30.0024 42V36H24.0024C20.6904 36 18.0024 38.688 18.0024 42C18.0024 45.312 20.6904 48 24.0024 48Z" fill="#0ACF83"/>
<path d="M18.0024 30C18.0024 26.688 20.6904 24 24.0024 24H30.0024V36H24.0024C20.6904 36 18.0024 33.312 18.0024 30Z" fill="#A259FF"/>
<path d="M18.0024 18C18.0024 14.688 20.6904 12 24.0024 12H30.0024V24H24.0024C20.6904 24 18.0024 21.312 18.0024 18Z" fill="#F24E1E"/>
<path d="M30.0024 12H36.0024C39.3144 12 42.0024 14.688 42.0024 18C42.0024 21.312 39.3144 24 36.0024 24H30.0024V12Z" fill="#FF7262"/>
<path d="M42.0024 30C42.0024 33.312 39.3144 36 36.0024 36C32.6904 36 30.0024 33.312 30.0024 30C30.0024 26.688 32.6904 24 36.0024 24C39.3144 24 42.0024 26.688 42.0024 30Z" fill="#1ABCFE"/>
</g>
<defs>
<linearGradient id="paint0_linear_318_130" x1="30.1147" y1="0.424805" x2="30.1147" y2="60.4248" gradientUnits="userSpaceOnUse">
<stop stop-color="#363636"/>
<stop offset="1"/>
</linearGradient>
<clipPath id="clip0_318_130">
<rect width="24.0048" height="36" fill="white" transform="translate(18 12)"/>
</clipPath>
</defs>
</svg>
