<svg width="60" height="60" viewBox="0 0 60 60" fill="none" xmlns="http://www.w3.org/2000/svg">
<g clip-path="url(#clip0_457_26)">
<rect width="60" height="60" rx="13" fill="white"/>
<g clip-path="url(#clip1_457_26)">
<path d="M9.89744 0H49.641C55.6667 0 60.5385 4.8718 60.5385 10.8974V49.1026C60.5385 55.1282 55.6667 60 49.641 60H9.89744C3.87179 60 -1 55.1282 -1 49.1026V10.8974C-1 4.8718 3.87179 0 9.89744 0Z" fill="#001E36"/>
<path d="M12.8462 42.0769V15.6922C12.8462 15.5128 12.9231 15.4102 13.1026 15.4102C13.5385 15.4102 13.9488 15.4102 14.5385 15.3846C15.1539 15.3589 15.7949 15.3589 16.4872 15.3333C17.1795 15.3076 17.9231 15.3076 18.718 15.282C19.5129 15.2563 20.2821 15.2563 21.0513 15.2563C23.1539 15.2563 24.8975 15.5128 26.3334 16.0512C27.6154 16.4871 28.7949 17.2051 29.7693 18.1538C30.5898 18.9743 31.2308 19.9743 31.6411 21.0769C32.0257 22.1538 32.2308 23.2563 32.2308 24.4102C32.2308 26.6153 31.718 28.4358 30.6923 29.8717C29.6667 31.3076 28.2308 32.3846 26.5641 32.9999C24.8205 33.641 22.8975 33.8717 20.7949 33.8717C20.1795 33.8717 19.7693 33.8717 19.5129 33.8461C19.2564 33.8205 18.8975 33.8204 18.4103 33.8204V42.0512C18.4359 42.2307 18.3077 42.3846 18.1282 42.4102C18.1026 42.4102 18.077 42.4102 18.0257 42.4102H13.1539C12.9488 42.4102 12.8462 42.3076 12.8462 42.0769ZM18.4359 20.3589V28.9743C18.7949 28.9999 19.1282 29.0256 19.4359 29.0256H20.7949C21.7949 29.0256 22.7949 28.8717 23.7436 28.564C24.5641 28.3333 25.2821 27.8461 25.8462 27.2051C26.3847 26.564 26.6411 25.6922 26.6411 24.564C26.6667 23.7692 26.4616 22.9743 26.0513 22.282C25.6154 21.6153 25 21.1025 24.2564 20.8204C23.3077 20.4358 22.2821 20.282 21.2308 20.3076C20.5641 20.3076 19.9744 20.3076 19.4872 20.3333C18.9744 20.3076 18.6154 20.3333 18.4359 20.3589Z" fill="#31A8FF"/>
<path d="M48.2309 27.4101C47.4616 26.9998 46.6411 26.7178 45.7693 26.5383C44.8206 26.3332 43.8719 26.205 42.8975 26.205C42.3847 26.1793 41.8463 26.2563 41.3591 26.3845C41.0257 26.4614 40.7437 26.6409 40.5642 26.8973C40.436 27.1024 40.3591 27.3588 40.3591 27.5896C40.3591 27.8204 40.4616 28.0511 40.6155 28.2563C40.8463 28.5383 41.1539 28.7691 41.4873 28.9486C42.077 29.2563 42.6924 29.5383 43.3078 29.7947C44.6924 30.2563 46.0257 30.8973 47.2565 31.6665C48.1027 32.205 48.795 32.9229 49.2822 33.7947C49.6924 34.6152 49.8975 35.5127 49.8719 36.4357C49.8975 37.6409 49.5386 38.846 48.8719 39.846C48.1539 40.8716 47.1539 41.6665 46.0001 42.1281C44.7437 42.6665 43.2052 42.9486 41.3591 42.9486C40.1796 42.9486 39.0257 42.846 37.8719 42.6152C36.9745 42.4614 36.077 42.1793 35.2565 41.7947C35.077 41.6922 34.9488 41.5127 34.9745 41.3075V36.846C34.9745 36.7691 35.0001 36.6665 35.077 36.6152C35.1539 36.564 35.2309 36.5896 35.3078 36.6409C36.3078 37.2306 37.3591 37.6409 38.4873 37.8973C39.4616 38.1537 40.4873 38.2819 41.5129 38.2819C42.4873 38.2819 43.1796 38.1537 43.6411 37.9229C44.0514 37.7434 44.3334 37.3075 44.3334 36.846C44.3334 36.487 44.1283 36.1537 43.718 35.8204C43.3078 35.487 42.4616 35.1024 41.2052 34.6152C39.8975 34.1537 38.6924 33.5383 37.5642 32.7691C36.7693 32.205 36.1027 31.4614 35.6155 30.5896C35.2052 29.7691 35.0001 28.8716 35.0257 27.9742C35.0257 26.8716 35.3334 25.8204 35.8975 24.8716C36.5386 23.846 37.4873 23.0255 38.5898 22.5127C39.795 21.8973 41.3078 21.6152 43.1283 21.6152C44.1796 21.6152 45.2565 21.6922 46.3078 21.846C47.077 21.9486 47.8206 22.1537 48.5129 22.4357C48.6155 22.4614 48.718 22.564 48.7693 22.6665C48.795 22.7691 48.8206 22.8716 48.8206 22.9742V27.1537C48.8206 27.2563 48.7693 27.3588 48.6924 27.4101C48.4616 27.4614 48.3334 27.4614 48.2309 27.4101Z" fill="#31A8FF"/>
</g>
</g>
<defs>
<clipPath id="clip0_457_26">
<rect width="60" height="60" rx="13" fill="white"/>
</clipPath>
<clipPath id="clip1_457_26">
<rect width="61.5385" height="60" fill="white" transform="translate(-1)"/>
</clipPath>
</defs>
</svg>
