<svg width="61" height="61" viewBox="0 0 61 61" fill="none" xmlns="http://www.w3.org/2000/svg">
<rect x="0.114746" y="0.424805" width="60" height="60" rx="13" fill="url(#paint0_linear_318_122)"/>
<path d="M30.1145 34.332C32.2722 34.332 34.0214 32.5828 34.0214 30.425C34.0214 28.2673 32.2722 26.5181 30.1145 26.5181C27.9567 26.5181 26.2075 28.2673 26.2075 30.425C26.2075 32.5828 27.9567 34.332 30.1145 34.332Z" fill="white"/>
<path d="M30.1151 38.4294C41.6932 38.4294 51.0792 34.8457 51.0792 30.4249C51.0792 26.0041 41.6932 22.4204 30.1151 22.4204C18.5369 22.4204 9.15088 26.0041 9.15088 30.4249C9.15088 34.8457 18.5369 38.4294 30.1151 38.4294Z" stroke="white"/>
<path d="M23.1828 34.4271C28.9719 44.4541 36.7685 50.7907 40.597 48.5804C44.4255 46.37 42.8361 36.4496 37.047 26.4226C31.2579 16.3956 23.4613 10.059 19.6328 12.2693C15.8043 14.4797 17.3937 24.4001 23.1828 34.4271Z" stroke="white"/>
<path d="M23.183 26.4225C17.3939 36.4495 15.8045 46.3699 19.633 48.5803C23.4615 50.7906 31.2581 44.454 37.0472 34.427C42.8363 24.4 44.4257 14.4796 40.5972 12.2692C36.7687 10.0588 28.9721 16.3955 23.183 26.4225Z" stroke="white"/>
<defs>
<linearGradient id="paint0_linear_318_122" x1="30.1147" y1="0.424805" x2="30.1147" y2="60.4248" gradientUnits="userSpaceOnUse">
<stop stop-color="#61DAFB"/>
<stop offset="1" stop-color="#06BDEF"/>
</linearGradient>
</defs>
</svg>
