<svg width="61" height="61" viewBox="0 0 61 61" fill="none" xmlns="http://www.w3.org/2000/svg">
<rect x="0.114746" y="0.424805" width="60" height="60" rx="13" fill="url(#paint0_linear_443_84)"/>
<path d="M29.4961 16.872C21.7441 17.1183 19.4401 22.656 18.9121 25.656C19.6001 24.5439 21.7681 22.104 24.9601 22.104C28.6801 22.104 31.5121 26.256 33.2401 27.552C35.3395 29.1266 39.558 31.2055 45.0961 29.52C49.5121 28.176 51.5601 23.4879 52.0081 21.264C49.8721 24.168 46.6321 25.9122 42.6241 23.856C39.8641 22.44 37.8001 16.608 29.4961 16.872Z" fill="white"/>
<path d="M18.5278 30.0477C10.7758 30.2941 8.47185 35.8317 7.94385 38.8317C8.63185 37.7197 10.7998 35.2798 13.9918 35.2798C17.7118 35.2798 20.5438 39.4318 22.2718 40.7278C24.3712 42.3023 28.5898 44.3813 34.1278 42.6958C38.5438 41.3518 40.5919 36.6637 41.0398 34.4397C38.9038 37.3437 35.6638 39.088 31.6558 37.0317C28.8958 35.6157 26.8318 29.7838 18.5278 30.0477Z" fill="white"/>
<defs>
<linearGradient id="paint0_linear_443_84" x1="30.1147" y1="0.424805" x2="30.1147" y2="60.4248" gradientUnits="userSpaceOnUse">
<stop stop-color="#17D6F7"/>
<stop offset="1" stop-color="#07B6D5"/>
</linearGradient>
</defs>
</svg>
