<svg width="61" height="61" viewBox="0 0 61 61" fill="none" xmlns="http://www.w3.org/2000/svg">
<rect x="0.114746" y="0.424805" width="60" height="60" rx="13" fill="url(#paint0_linear_318_145)"/>
<path fill-rule="evenodd" clip-rule="evenodd" d="M38.6069 25.4023C38.6069 25.4023 35.7639 34.1703 35.5423 34.9086C35.5423 34.1703 33.3823 18.4248 33.3823 18.4248C28.5269 18.4248 25.9977 21.8028 24.5577 25.4023C24.5577 25.4023 21.0869 34.1887 20.8654 34.9271C20.8654 34.2441 20.33 25.4946 20.33 25.4946C19.9255 21.5064 16.5852 18.4608 12.5762 18.4248L16.5639 42.2922C21.6593 42.2922 24.3731 38.8957 25.7946 35.3147C25.7946 35.3147 28.8408 27.562 28.97 27.2113C28.97 27.5435 31.1669 42.3107 31.1669 42.3107C35.3786 42.343 39.1366 39.6718 40.49 35.6839L47.6531 18.4248C42.6131 18.4248 39.9731 21.8028 38.6069 25.4023Z" fill="white"/>
<defs>
<linearGradient id="paint0_linear_318_145" x1="30.1147" y1="0.424805" x2="30.1147" y2="60.4248" gradientUnits="userSpaceOnUse">
<stop stop-color="#4353FF"/>
<stop offset="1" stop-color="#0F24FF"/>
</linearGradient>
</defs>
</svg>
