<svg width="61" height="61" viewBox="0 0 61 61" fill="none" xmlns="http://www.w3.org/2000/svg">
<rect x="0.114746" y="0.424805" width="60" height="60" rx="13" fill="url(#paint0_linear_444_95)"/>
<g clip-path="url(#clip0_444_95)">
<path d="M12.958 30.4244C12.958 37.2156 16.9047 43.0846 22.6277 45.8658L14.4434 23.4419C13.4915 25.5757 12.958 27.937 12.958 30.4244V30.4244Z" fill="white"/>
<path d="M41.698 29.5584C41.698 27.438 40.9364 25.9695 40.2831 24.8265C39.4134 23.4133 38.5982 22.2164 38.5982 20.8031C38.5982 19.226 39.7944 17.7578 41.4793 17.7578C41.5554 17.7578 41.6275 17.7673 41.7016 17.7715C38.6491 14.975 34.5823 13.2676 30.1155 13.2676C24.1216 13.2676 18.8481 16.3429 15.7803 21.001C16.1828 21.0131 16.5622 21.0216 16.8844 21.0216C18.679 21.0216 21.4569 20.8038 21.4569 20.8038C22.3818 20.7493 22.4909 22.1077 21.5669 22.2171C21.5669 22.2171 20.6375 22.3264 19.6032 22.3806L25.8512 40.9649L29.6059 29.704L26.9328 22.38C26.0089 22.3258 25.1336 22.2164 25.1336 22.2164C24.2091 22.1622 24.3174 20.7486 25.242 20.8031C25.242 20.8031 28.0754 21.0209 29.7613 21.0209C31.5556 21.0209 34.3339 20.8031 34.3339 20.8031C35.2594 20.7486 35.3681 22.1071 34.4439 22.2164C34.4439 22.2164 33.5125 22.3258 32.4802 22.38L38.6805 40.8235L40.3918 35.1048C41.1336 32.7317 41.698 31.0272 41.698 29.5584V29.5584Z" fill="white"/>
<path d="M30.4163 31.9253L25.2686 46.8838C26.8056 47.3356 28.4311 47.5828 30.1153 47.5828C32.1133 47.5828 34.0294 47.2374 35.8129 46.6102C35.7668 46.5368 35.725 46.4587 35.6908 46.3738L30.4163 31.9253Z" fill="white"/>
<path d="M45.17 22.1929C45.2438 22.7394 45.2856 23.326 45.2856 23.9571C45.2856 25.6982 44.9605 27.6554 43.981 30.1026L38.7402 45.255C43.841 42.2805 47.2719 36.7544 47.2719 30.4248C47.2722 27.4418 46.5102 24.6368 45.17 22.1929V22.1929Z" fill="white"/>
<path d="M30.1154 10.4248C19.0876 10.4248 10.1152 19.3965 10.1152 30.4243C10.1152 41.4534 19.0876 50.4248 30.1154 50.4248C41.1429 50.4248 50.1165 41.4534 50.1165 30.4243C50.1162 19.3965 41.1429 10.4248 30.1154 10.4248ZM30.1154 49.5081C19.5933 49.5081 11.0323 40.9471 11.0323 30.4243C11.0323 19.9022 19.593 11.3419 30.1154 11.3419C40.6372 11.3419 49.1975 19.9022 49.1975 30.4243C49.1975 40.9471 40.6372 49.5081 30.1154 49.5081Z" fill="white"/>
</g>
<defs>
<linearGradient id="paint0_linear_444_95" x1="30.1147" y1="0.424805" x2="30.1147" y2="60.4248" gradientUnits="userSpaceOnUse">
<stop stop-color="#00A0D2"/>
<stop offset="1" stop-color="#0073AA"/>
</linearGradient>
<clipPath id="clip0_444_95">
<rect width="39.999" height="40" fill="white" transform="translate(10.1152 10.4248)"/>
</clipPath>
</defs>
</svg>
